<svg id="Logo-dark_bg" xmlns="http://www.w3.org/2000/svg" width="563.745" height="89.326" viewBox="0 0 563.745 89.326">
  <path id="Path_8" data-name="Path 8" d="M-612.541,883.486l-24.316,15.357,24.316,15.357v25.6l-62.709-40.953,62.709-41.593Z" transform="translate(675.25 -854.479)" fill="#66c7b2"/>
  <path id="Path_9" data-name="Path 9" d="M62.709,26.236,38.394,41.593,62.709,56.95v25.6L0,41.593,62.709,0Z" transform="translate(563.745 86.043) rotate(180)" fill="#66c7b2"/>
  <path id="Path_10" data-name="Path 10" d="M62.709,26.236,38.394,41.593,62.709,56.95v25.6L0,41.593,62.709,0Z" transform="translate(170.444 67.661) rotate(-90)" fill="#66c7b2"/>
  <path id="Path_61" data-name="Path 61" d="M96.121-42.582c0-27.766-19.58-44.778-44.939-44.778C24.861-87.36,5.12-68.742,5.12-42.9c0,25.679,19.42,44.457,49.272,44.457C69.96,1.555,82-3.26,90.022-12.408L76.7-26.853c-5.938,5.617-12.519,8.346-21.667,8.346-13.161,0-22.309-6.58-24.716-17.334H95.64C95.8-37.927,96.121-40.656,96.121-42.582ZM51.343-68.421c11.235,0,19.42,7.062,21.185,17.976H30C31.762-61.52,39.948-68.421,51.343-68.421Z" transform="translate(70.965 87.771)" fill="#fff"/>
  <path id="Path_56" data-name="Path 56" d="M96.121-42.582c0-27.766-19.58-44.778-44.939-44.778C24.861-87.36,5.12-68.742,5.12-42.9c0,25.679,19.42,44.457,49.272,44.457C69.96,1.555,82-3.26,90.022-12.408L76.7-26.853c-5.938,5.617-12.519,8.346-21.667,8.346-13.161,0-22.309-6.58-24.716-17.334H95.64C95.8-37.927,96.121-40.656,96.121-42.582ZM51.343-68.421c11.235,0,19.42,7.062,21.185,17.976H30C31.762-61.52,39.948-68.421,51.343-68.421Z" transform="translate(245.504 87.771)" fill="#fff"/>
  <path id="Path_57" data-name="Path 57" d="M97.815.275,63.389-45.241l33.1-43.529H69.016L49.651-62.785,30.783-88.77H1.819l33.1,44.192L.66.275H28.8L48.989-27.034,68.52.275Z" transform="translate(341.788 88.77)" fill="#fff"/>
  <path id="Path_11" data-name="Path 11" d="M-497.75,856.25v89.3h25.6v-89.3Z" transform="translate(952.074 -856.244)" fill="#fff"/>
</svg>
